<svg xmlns="http://www.w3.org/2000/svg" viewBox="0 0 70 56">
<path fill="#00afe6" d="
  M 39.80 29.20
  A 0.12 0.12 0.0 0 0 39.68 29.30
  L 39.67 29.30
  A 0.14 0.14 0.0 0 0 39.77 29.45
  Q 46.26 31.27 50.88 32.30
  Q 58.73 34.05 65.91 32.86
  A 0.14 0.14 0.0 0 1 65.99 33.13
  Q 54.39 37.59 41.91 34.29
  Q 38.27 33.33 28.76 30.48
  Q 18.77 27.48 8.13 28.47
  A 0.17 0.16 -5.5 0 1 7.95 28.33
  L 7.95 28.32
  A 0.17 0.16 85.3 0 1 8.07 28.17
  L 14.41 26.71
  A 1.21 1.19 9.8 0 0 15.13 26.21
  L 31.46 2.47
  A 0.13 0.13 0.0 0 1 31.68 2.47
  L 49.02 28.18
  A 0.57 0.57 0.0 0 1 48.55 29.07
  L 39.80 29.20
  Z"
/>
<path fill="#008bcf" d="
  M 0.91 32.97
  C 6.69 31.48 12.07 30.34 19.27 31.22
  Q 24.97 31.92 37.52 35.69
  C 44.71 37.85 50.70 38.50 57.79 37.82
  A 0.26 0.26 0.0 0 1 58.08 38.02
  L 58.15 38.30
  A 0.10 0.10 0.0 0 1 58.07 38.42
  L 48.86 40.54
  A 0.73 0.72 -83.8 0 0 48.37 40.94
  C 44.80 48.50 36.45 52.67 28.23 51.07
  Q 17.50 48.99 13.65 37.62
  A 0.78 0.78 0.0 0 1 14.39 36.59
  L 24.77 36.59
  A 0.11 0.11 0.0 0 0 24.80 36.38
  Q 13.30 32.37 0.95 33.21
  A 0.12 0.12 0.0 0 1 0.91 32.97
  Z"
/>
</svg>
