<?xml version="1.0" encoding="UTF-8" standalone="no"?>
<!DOCTYPE svg PUBLIC "-//W3C//DTD SVG 1.1//EN" "http://www.w3.org/Graphics/SVG/1.1/DTD/svg11.dtd">
<svg xmlns="http://www.w3.org/2000/svg" version="1.1" viewBox="0.00 0.00 210.00 55.00">
<path fill="#00afe6" d="
  M 39.80 29.20
  A 0.12 0.12 0.0 0 0 39.68 29.30
  L 39.67 29.30
  A 0.14 0.14 0.0 0 0 39.77 29.45
  Q 46.26 31.27 50.88 32.30
  Q 58.73 34.05 65.91 32.86
  A 0.14 0.14 0.0 0 1 65.99 33.13
  Q 54.39 37.59 41.91 34.29
  Q 38.27 33.33 28.76 30.48
  Q 18.77 27.48 8.13 28.47
  A 0.17 0.16 -5.5 0 1 7.95 28.33
  L 7.95 28.32
  A 0.17 0.16 85.3 0 1 8.07 28.17
  L 14.41 26.71
  A 1.21 1.19 9.8 0 0 15.13 26.21
  L 31.46 2.47
  A 0.13 0.13 0.0 0 1 31.68 2.47
  L 49.02 28.18
  A 0.57 0.57 0.0 0 1 48.55 29.07
  L 39.80 29.20
  Z"
/>
<circle fill="#00598a" cx="170.89" cy="17.20" r="2.28"/>
<path fill="#00a6f4" d="
  M 85.09 16.14
  C 92.29 15.99 100.63 15.00 100.84 23.14
  Q 100.94 26.85 98.77 28.82
  C 95.93 31.40 93.15 30.74 89.68 30.95
  A 0.64 0.64 0.0 0 0 89.08 31.59
  L 89.08 37.46
  A 0.52 0.51 90.0 0 1 88.57 37.98
  L 84.87 37.98
  A 0.47 0.46 -90.0 0 1 84.41 37.51
  L 84.41 16.84
  A 0.70 0.70 0.0 0 1 85.09 16.14
  Z
  M 89.10 20.36
  L 89.02 26.64
  A 0.45 0.45 0.0 0 0 89.47 27.09
  L 92.77 27.13
  A 3.41 3.33 -89.3 0 0 96.14 23.76
  L 96.14 23.40
  A 3.41 3.33 -89.3 0 0 92.85 19.95
  L 89.55 19.91
  A 0.45 0.45 0.0 0 0 89.10 20.36
  Z"
/>
<path fill="#00598a" d="
  M 156.28 33.70
  Q 156.35 33.70 156.41 33.67
  A 0.36 0.12 -78.2 0 0 156.55 33.43
  L 161.59 16.39
  A 0.39 0.38 8.0 0 1 161.96 16.12
  L 166.41 16.12
  A 0.21 0.20 -80.6 0 1 166.60 16.39
  L 159.41 37.32
  A 0.94 0.94 0.0 0 1 158.68 37.94
  Q 158.35 38.00 156.29 38.01
  Q 154.23 38.01 153.90 37.96
  A 0.94 0.94 0.0 0 1 153.17 37.34
  L 145.87 16.44
  A 0.21 0.20 80.3 0 1 146.06 16.17
  L 150.51 16.15
  A 0.39 0.38 -8.3 0 1 150.88 16.42
  L 156.01 33.43
  A 0.36 0.12 77.9 0 0 156.15 33.67
  Q 156.21 33.70 156.28 33.70
  Z"
/>
<path fill="#00598a" d="
  M 186.14 35.92
  L 185.40 37.00
  A 2.05 2.04 -79.7 0 1 184.25 37.80
  Q 177.88 39.41 175.86 33.65
  C 174.68 30.28 175.01 24.86 178.14 22.68
  Q 182.51 19.65 186.49 23.89
  A 0.12 0.11 24.3 0 0 186.69 23.82
  L 186.69 16.50
  A 0.36 0.36 0.0 0 1 187.05 16.14
  L 190.56 16.14
  A 0.38 0.37 -0.0 0 1 190.94 16.51
  L 190.94 37.53
  A 0.45 0.45 0.0 0 1 190.49 37.98
  L 187.21 37.98
  A 0.53 0.52 -90.0 0 1 186.69 37.45
  L 186.69 36.09
  A 0.30 0.30 0.0 0 0 186.14 35.92
  Z
  M 183.2513 24.8204
  A 5.02 3.64 -89.3 0 0 179.5503 29.7955
  A 5.02 3.64 -89.3 0 0 183.1287 34.8596
  A 5.02 3.64 -89.3 0 0 186.8297 29.8845
  A 5.02 3.64 -89.3 0 0 183.2513 24.8204
  Z"
/>
<path fill="#00a6f4" d="
  M 130.71 21.63
  L 130.71 25.03
  A 0.27 0.27 0.0 0 1 130.41 25.30
  C 124.88 24.77 125.39 27.94 125.40 32.47
  Q 125.41 35.32 125.43 37.41
  A 0.57 0.57 0.0 0 1 124.86 37.98
  L 121.25 37.98
  A 0.54 0.53 -0.0 0 1 120.71 37.45
  L 120.71 22.13
  A 0.57 0.57 0.0 0 1 121.29 21.56
  L 124.69 21.58
  A 0.61 0.61 0.0 0 1 125.30 22.14
  Q 125.33 22.45 125.08 23.07
  Q 124.98 23.32 125.07 23.47
  Q 125.17 23.61 125.29 23.66
  A 0.19 0.19 0.0 0 0 125.52 23.59
  Q 127.20 20.95 130.44 21.33
  A 0.30 0.30 0.0 0 1 130.71 21.63
  Z"
/>
<path fill="#00a6f4" d="
  M 146.02 31.01
  L 135.92 31.01
  A 0.53 0.52 83.8 0 0 135.41 31.65
  C 136.12 34.82 139.44 36.33 141.83 33.77
  Q 143.11 32.40 146.07 33.95
  A 0.52 0.52 0.0 0 1 146.25 34.71
  Q 143.32 38.91 137.96 38.27
  Q 132.82 37.64 131.41 33.13
  C 130.13 29.04 131.30 23.79 135.58 22.02
  Q 138.60 20.77 141.59 21.80
  Q 146.85 23.60 146.67 30.38
  A 0.65 0.64 0.4 0 1 146.02 31.01
  Z
  M 135.72 28.12
  L 142.04 28.06
  A 0.15 0.15 0.0 0 0 142.19 27.91
  L 142.19 27.83
  A 3.09 2.99 -0.5 0 0 139.08 24.87
  L 138.64 24.87
  A 3.09 2.99 -0.5 0 0 135.57 27.89
  L 135.57 27.97
  A 0.15 0.15 0.0 0 0 135.72 28.12
  Z"
/>
<path fill="#00a6f4" d="
  M 113.62 35.53
  Q 111.98 38.32 108.75 38.19
  C 104.10 38.01 103.01 34.85 103.10 30.52
  Q 103.14 28.34 103.11 22.06
  A 0.48 0.48 0.0 0 1 103.59 21.58
  L 107.29 21.58
  A 0.45 0.45 0.0 0 1 107.74 22.03
  L 107.74 31.69
  A 2.69 2.68 90.0 0 0 110.42 34.38
  L 110.92 34.38
  A 2.68 2.67 90.0 0 0 113.59 31.70
  L 113.59 21.95
  A 0.38 0.37 -0.0 0 1 113.97 21.58
  L 117.86 21.58
  A 0.41 0.41 0.0 0 1 118.27 21.99
  L 118.27 37.46
  A 0.52 0.51 90.0 0 1 117.76 37.98
  L 114.41 37.98
  A 0.65 0.65 0.0 0 1 113.79 37.15
  L 114.20 35.78
  A 0.32 0.32 0.0 0 0 113.62 35.53
  Z"
/>
<path fill="#00598a" d="
  M 203.16 36.32
  C 200.13 39.67 193.79 38.75 193.39 33.78
  C 192.98 28.76 198.68 28.41 202.41 27.97
  A 1.37 1.37 0.0 0 0 203.07 25.51
  Q 200.35 23.50 197.98 26.07
  A 1.30 1.28 -60.3 0 1 196.66 26.44
  L 194.33 25.75
  A 0.58 0.57 28.2 0 1 194.05 24.83
  Q 198.57 19.34 205.51 22.63
  A 3.95 3.95 0.0 0 1 207.77 26.20
  L 207.77 37.35
  A 0.65 0.64 90.0 0 1 207.13 38.00
  L 204.20 38.00
  A 0.62 0.62 0.0 0 1 203.61 37.20
  L 203.77 36.66
  A 0.36 0.36 0.0 0 0 203.16 36.32
  Z
  M 202.96 30.68
  C 200.79 30.99 198.37 31.04 197.65 32.57
  A 1.76 1.60 -67.6 0 0 198.50 34.92
  C 201.31 35.88 203.71 34.56 203.59 31.20
  A 0.55 0.55 0.0 0 0 202.96 30.68
  Z"
/>
<rect fill="#00598a" x="168.68" y="21.68" width="4.48" height="16.30" rx="0.34"/>
<path fill="#008bcf" d="
  M 0.91 32.97
  C 6.69 31.48 12.07 30.34 19.27 31.22
  Q 24.97 31.92 37.52 35.69
  C 44.71 37.85 50.70 38.50 57.79 37.82
  A 0.26 0.26 0.0 0 1 58.08 38.02
  L 58.15 38.30
  A 0.10 0.10 0.0 0 1 58.07 38.42
  L 48.86 40.54
  A 0.73 0.72 -83.8 0 0 48.37 40.94
  C 44.80 48.50 36.45 52.67 28.23 51.07
  Q 17.50 48.99 13.65 37.62
  A 0.78 0.78 0.0 0 1 14.39 36.59
  L 24.77 36.59
  A 0.11 0.11 0.0 0 0 24.80 36.38
  Q 13.30 32.37 0.95 33.21
  A 0.12 0.12 0.0 0 1 0.91 32.97
  Z"
/>
</svg>
